<svg xmlns="http://www.w3.org/2000/svg" width="136" height="31" fill="none" viewBox="0 0 136 31"><path fill="#fff" d="M52.65 24H48.1l-5.6-8.1V24h-4V6.5h4v7.6l5.35-7.6h4.55l-5.9 8.525zm1.374-14V6.5h3.75V10zm0 14V11.5h3.75V24zM67.52 11.15q1.774 0 2.875 1.325 1.125 1.3 1.125 3.6V24h-3.75v-7.6q0-.9-.475-1.35-.45-.45-1.2-.45-1.825 0-1.825 2.1V24h-3.75V11.5h3.75v1.15q.975-1.5 3.25-1.5m17.127 11.3q-1.925 1.9-4.7 1.9t-4.7-1.9q-1.925-1.925-1.925-4.7t1.925-4.675q1.925-1.925 4.7-1.925t4.7 1.925q1.925 1.9 1.925 4.675t-1.925 4.7m-6.75-2.575q.825.825 2.05.825t2.05-.825.825-2.125-.825-2.125-2.05-.825-2.05.825-.825 2.125.825 2.125M90.167 12.4q1.5-1.25 3.7-1.25t3.7 1.3q1.5 1.275 1.5 3.675V24h-3.65v-.975q-1.149 1.325-3.225 1.325-1.75 0-2.95-1.025-1.175-1.025-1.175-2.875t1.175-2.875q1.2-1.025 2.95-1.025 1.95 0 3.225.95v-1.125q0-1.775-1.55-1.775-.75 0-1.15.35t-.4.925h-3.65q0-2.225 1.5-3.475m3.35 9.3q.9 0 1.4-.35t.5-.9q0-.574-.5-.9-.5-.35-1.4-.35-.825 0-1.275.35-.425.326-.425.9t.425.925q.45.325 1.275.325m11.718-8.225q.3-1.075 1.175-1.65t2.075-.575v4.25q-1.3-.2-2.275.425-.975.626-.975 2.175V24h-3.75V11.5h3.75zm7.924 5.775q.626 2.075 2.925 2.075.675 0 1.275-.25.6-.275.875-.7l3.65-.025q-.6 1.95-2.15 2.975t-3.7 1.025q-3.05 0-4.925-1.875t-1.875-4.725q0-2.825 1.875-4.7 1.9-1.9 4.825-1.9 2.726 0 4.5 1.875 1.8 1.875 1.8 4.725 0 .8-.15 1.5zm-.025-2.85h5.375q-.55-1.925-2.6-1.925-2.15 0-2.775 1.925m12.654-4q1.5-1.25 3.7-1.25t3.7 1.3q1.5 1.275 1.5 3.675V24h-3.65v-.975q-1.15 1.325-3.225 1.325-1.75 0-2.95-1.025-1.175-1.025-1.175-2.875t1.175-2.875q1.2-1.025 2.95-1.025 1.95 0 3.225.95v-1.125q0-1.775-1.55-1.775-.75 0-1.15.35t-.4.925h-3.65q0-2.225 1.5-3.475m3.35 9.3q.9 0 1.4-.35t.5-.9q0-.574-.5-.9-.5-.35-1.4-.35-.825 0-1.275.35-.425.326-.425.9t.425.925q.45.325 1.275.325M13.266 9.491a2.534 2.534 0 0 0-2.532-2.53 2.534 2.534 0 0 0-2.53 2.53 2.534 2.534 0 0 0 2.53 2.532 2.534 2.534 0 0 0 2.532-2.532m-4.125 0c0-.878.715-1.593 1.593-1.593.88 0 1.594.715 1.594 1.593 0 .88-.715 1.594-1.594 1.594a1.596 1.596 0 0 1-1.593-1.594M6.644 15.553a2.52 2.52 0 0 0 1.258-1.473 2.51 2.51 0 0 0-.152-1.931 2.52 2.52 0 0 0-1.473-1.258 2.51 2.51 0 0 0-1.931.152 2.52 2.52 0 0 0-1.258 1.473 2.51 2.51 0 0 0 .152 1.93 2.535 2.535 0 0 0 2.257 1.383 2.5 2.5 0 0 0 1.147-.276m-1.642-.74a1.58 1.58 0 0 1-.927-.792 1.58 1.58 0 0 1-.095-1.216c.131-.404.412-.733.791-.927a1.59 1.59 0 0 1 1.216-.095c.405.131.734.412.927.792.194.379.228.81.096 1.215a1.58 1.58 0 0 1-.792.927c-.38.194-.81.227-1.216.096M6.01 21.504a2.53 2.53 0 1 0 2.975-4.095 2.51 2.51 0 0 0-1.884-.452 2.51 2.51 0 0 0-1.652 1.012 2.534 2.534 0 0 0 .56 3.535m.198-2.984a1.58 1.58 0 0 1 1.292-.657 1.595 1.595 0 0 1 1.286 2.53c-.516.711-1.515.87-2.226.353a1.595 1.595 0 0 1-.352-2.226M13.976 21.987c.516 0 1.037-.157 1.485-.483a2.534 2.534 0 0 0 .56-3.535 2.52 2.52 0 0 0-1.652-1.013 2.52 2.52 0 0 0-1.884.453 2.51 2.51 0 0 0-1.012 1.652 2.529 2.529 0 0 0 2.503 2.926m-.94-3.82c.345-.25.766-.351 1.186-.285a1.595 1.595 0 0 1 .687 2.863c-.71.517-1.709.36-2.225-.352a1.595 1.595 0 0 1 .352-2.226M15.191 10.89a2.51 2.51 0 0 0-1.473 1.259 2.51 2.51 0 0 0-.152 1.93 2.51 2.51 0 0 0 1.258 1.474 2.52 2.52 0 0 0 1.931.152 2.51 2.51 0 0 0 1.473-1.258c.307-.603.361-1.288.152-1.931a2.51 2.51 0 0 0-1.258-1.473 2.52 2.52 0 0 0-1.93-.152m1.506.988c.379.194.66.523.792.928.131.404.097.836-.096 1.215s-.523.66-.927.792a1.58 1.58 0 0 1-1.216-.096 1.58 1.58 0 0 1-.792-.927 1.58 1.58 0 0 1 .096-1.215 1.595 1.595 0 0 1 2.143-.696M12.342 15a1.61 1.61 0 0 0-1.608-1.607A1.61 1.61 0 0 0 9.127 15a1.61 1.61 0 0 0 1.607 1.608A1.61 1.61 0 0 0 12.342 15m-2.277 0a.67.67 0 1 1 1.34.001.67.67 0 0 1-1.34-.001"/><path fill="#fff" d="M23.863 23.707a2.8 2.8 0 0 0-1.985-.822c-.75 0-1.454.292-1.984.822a3.7 3.7 0 0 1-2.63 1.09h-2.13a10.7 10.7 0 0 0 3.19-2.207A10.66 10.66 0 0 0 21.47 15a10.7 10.7 0 0 0-1.75-5.876.469.469 0 1 0-.784.514A9.76 9.76 0 0 1 20.531 15c0 5.402-4.395 9.797-9.797 9.797S.938 20.402.938 15s4.394-9.797 9.796-9.797c1.918 0 3.775.554 5.37 1.601a.469.469 0 1 0 .515-.783 10.7 10.7 0 0 0-5.885-1.755 10.66 10.66 0 0 0-7.59 3.144A10.66 10.66 0 0 0 0 15c0 2.867 1.117 5.563 3.144 7.59a10.66 10.66 0 0 0 7.59 3.144h6.53a4.63 4.63 0 0 0 3.293-1.364 1.86 1.86 0 0 1 1.321-.547c.5 0 .969.194 1.322.547a.469.469 0 0 0 .663-.663"/><path fill="#fff" d="M17.996 8.213a.47.47 0 0 0 .469-.468.472.472 0 0 0-.8-.332.472.472 0 0 0 0 .663.47.47 0 0 0 .331.137"/></svg>